<?xml version="1.0" encoding="iso-8859-1"?>
<!-- Uploaded to: SVG Repo, www.svgrepo.com, Generator: SVG Repo Mixer Tools -->
<svg fill="#000000" height="800px" width="800px" version="1.1" id="Layer_1" xmlns="http://www.w3.org/2000/svg" xmlns:xlink="http://www.w3.org/1999/xlink" 
	 viewBox="0 0 512 512" xml:space="preserve">
<g>
	<g>
		<g>
			<path d="M387.268,239.582c-3.191-1.323-6.861-0.589-9.301,1.852L256,363.4L134.033,241.433c-2.441-2.44-6.101-3.166-9.301-1.852
				c-3.191,1.323-5.265,4.437-5.265,7.885V384c0,2.364,0.981,4.625,2.714,6.238l128,119.467c1.638,1.527,3.729,2.295,5.82,2.295
				s4.181-0.768,5.828-2.295l128-119.467c1.724-1.613,2.705-3.874,2.705-6.238V247.466
				C392.533,244.019,390.46,240.904,387.268,239.582z"/>
			<path d="M387.268,0.648c-3.191-1.314-6.861-0.597-9.301,1.852L256,124.467L134.033,2.5c-2.441-2.449-6.101-3.157-9.301-1.852
				c-3.191,1.323-5.265,4.437-5.265,7.885v136.533c0,2.364,0.981,4.625,2.714,6.238l128,119.467c1.638,1.528,3.729,2.295,5.82,2.295
				s4.181-0.768,5.828-2.295l128-119.467c1.724-1.613,2.705-3.874,2.705-6.238V8.533C392.533,5.086,390.46,1.971,387.268,0.648z"/>
		</g>
	</g>
</g>
</svg>